<svg width="64" height="64" viewBox="0 0 64 64" fill="none" xmlns="http://www.w3.org/2000/svg">
<path fill-rule="evenodd" clip-rule="evenodd" d="M44.1081 2.82861C44.1081 1.48242 45.1994 0.391113 46.5456 0.391113H61.1706C62.5168 0.391113 63.6081 1.48242 63.6081 2.82861V17.4537C63.6081 18.7999 62.5168 19.8912 61.1706 19.8912C59.8244 19.8912 58.7331 18.7999 58.7331 17.4537V5.26611H46.5456C45.1994 5.26611 44.1081 4.17481 44.1081 2.82861Z" fill="#D21C31"/>
<path fill-rule="evenodd" clip-rule="evenodd" d="M8.19754 20.8549C18.0338 11.0185 33.9818 11.0185 43.8181 20.8549C48.7358 25.7727 51.1953 32.2229 51.1953 38.6652C51.1953 45.1074 48.7358 51.5577 43.8181 56.4754C33.9818 66.3117 18.0338 66.3117 8.19753 56.4754C-1.63875 46.639 -1.63877 30.6912 8.19754 20.8549C8.19754 20.8549 8.19753 20.8549 8.19754 20.8549ZM40.3709 24.302C32.4384 16.3694 19.5772 16.3694 11.6447 24.302C3.7122 32.2345 3.71216 45.0957 11.6447 53.0283C19.5771 60.9608 32.4385 60.9608 40.3709 53.0283C44.3377 49.0615 46.3203 43.8674 46.3203 38.6652C46.3203 33.463 44.3377 28.2688 40.3709 24.302Z" fill="#D21C31"/>
<path fill-rule="evenodd" clip-rule="evenodd" d="M59.6449 4.35505C60.5968 5.30696 60.5968 6.8503 59.6449 7.80219L43.4736 23.9734C42.5216 24.9253 40.9783 24.9253 40.0264 23.9734C39.0745 23.0215 39.0745 21.4781 40.0264 20.5262L56.1978 4.35503C57.1497 3.40313 58.693 3.40314 59.6449 4.35505Z" fill="#D21C31"/>
</svg>
