<svg width="20" height="20" viewBox="0 0 20 20" fill="none" xmlns="http://www.w3.org/2000/svg">
<path fill-rule="evenodd" clip-rule="evenodd" d="M17.7191 13.3556C14.6925 16.3821 9.78548 16.3821 6.75892 13.3556C5.24578 11.8424 4.489 9.85772 4.489 7.87549C4.489 5.89325 5.24578 3.90855 6.75892 2.39541C9.78548 -0.631153 14.6925 -0.631153 17.7191 2.39541C20.7456 5.42197 20.7456 10.329 17.7191 13.3556ZM7.81958 12.2949C10.2604 14.7357 14.2176 14.7357 16.6584 12.2949C19.0992 9.85413 19.0992 5.89685 16.6584 3.45607C14.2176 1.01529 10.2604 1.01529 7.81958 3.45607C6.59904 4.67661 5.989 6.27481 5.989 7.87549C5.989 9.47616 6.59904 11.0744 7.81958 12.2949Z" fill="#1C1B1F"/>
<path fill-rule="evenodd" clip-rule="evenodd" d="M0.337346 19.6619C0.0444525 19.369 0.0444525 18.8941 0.337346 18.6013L6.70131 12.2373C6.9942 11.9444 7.46907 11.9444 7.76197 12.2373C8.05486 12.5302 8.05486 13.0051 7.76197 13.298L1.39801 19.6619C1.10511 19.9548 0.630239 19.9548 0.337346 19.6619Z" fill="#1C1B1F"/>
<path fill-rule="evenodd" clip-rule="evenodd" d="M8.11552 19.3084C7.82263 19.6013 7.34775 19.6013 7.05486 19.3084L0.690899 12.9444C0.398006 12.6515 0.398006 12.1766 0.690899 11.8837C0.983792 11.5908 1.45867 11.5908 1.75156 11.8837L8.11552 18.2477C8.40841 18.5406 8.40841 19.0155 8.11552 19.3084Z" fill="#1C1B1F"/>
</svg>
