<svg width="78" height="78" viewBox="0 0 78 78" fill="none" xmlns="http://www.w3.org/2000/svg">
<path fill-rule="evenodd" clip-rule="evenodd" d="M64.0876 49.9062C54.2513 59.7425 38.3034 59.7425 28.4671 49.9062C23.5494 44.9885 21.0898 38.5382 21.0898 32.0959C21.0898 25.6537 23.5494 19.2034 28.4671 14.2857C38.3034 4.44936 54.2513 4.44936 64.0876 14.2857C73.9239 24.122 73.9239 40.0699 64.0876 49.9062ZM31.9142 46.4591C39.8468 54.3916 52.7079 54.3916 60.6404 46.4591C68.573 38.5265 68.573 25.6654 60.6404 17.7328C52.7079 9.80032 39.8468 9.80032 31.9142 17.7328C27.9475 21.6996 25.9648 26.8938 25.9648 32.0959C25.9648 37.2981 27.9475 42.4923 31.9142 46.4591Z" fill="#D21C31"/>
<path fill-rule="evenodd" clip-rule="evenodd" d="M7.59698 70.4018C6.64508 69.4499 6.64508 67.9066 7.59698 66.9547L28.2799 46.2718C29.2318 45.3199 30.7751 45.3199 31.727 46.2718C32.6789 47.2237 32.6789 48.7671 31.727 49.719L11.0441 70.4018C10.0922 71.3537 8.54889 71.3537 7.59698 70.4018Z" fill="#D21C31"/>
<path fill-rule="evenodd" clip-rule="evenodd" d="M32.876 69.2528C31.9241 70.2047 30.3808 70.2047 29.4289 69.2528L8.74603 48.5699C7.79413 47.618 7.79413 46.0747 8.74603 45.1228C9.69793 44.1709 11.2413 44.1709 12.1932 45.1228L32.876 65.8056C33.828 66.7575 33.828 68.3009 32.876 69.2528Z" fill="#D21C31"/>
</svg>
